<mxfile host="Electron" agent="Mozilla/5.0 (Windows NT 10.0; Win64; x64) AppleWebKit/537.36 (KHTML, like Gecko) draw.io/27.0.9 Chrome/134.0.6998.205 Electron/35.4.0 Safari/537.36" version="27.0.9" pages="6">
  <diagram name="Setup" id="eS4U_L2c0beQGJlo2FDL">
    <mxGraphModel dx="772" dy="581" grid="1" gridSize="10" guides="1" tooltips="1" connect="1" arrows="1" fold="1" page="1" pageScale="1" pageWidth="850" pageHeight="1100" math="0" shadow="0">
      <root>
        <mxCell id="0" />
        <mxCell id="1" parent="0" />
        <mxCell id="4uBkj7MDO5G3pvmX7vfA-11" value="QUAGLO30JUN2025GIT-HUB" style="text;whiteSpace=wrap;fillColor=#1ba1e2;fontColor=#ffffff;strokeColor=#006EAF;" parent="1" vertex="1">
          <mxGeometry x="410" y="120" width="290" height="140" as="geometry" />
        </mxCell>
        <mxCell id="4uBkj7MDO5G3pvmX7vfA-1" value="Setup" style="rounded=0;whiteSpace=wrap;html=1;fillColor=#008a00;fontColor=#ffffff;strokeColor=#005700;" parent="1" vertex="1">
          <mxGeometry x="90" y="40" width="120" height="60" as="geometry" />
        </mxCell>
        <mxCell id="4uBkj7MDO5G3pvmX7vfA-2" value="node : 23.10.0" style="rounded=0;whiteSpace=wrap;html=1;fillColor=#008a00;fontColor=#ffffff;strokeColor=#005700;" parent="1" vertex="1">
          <mxGeometry x="150" y="130" width="120" height="60" as="geometry" />
        </mxCell>
        <mxCell id="4uBkj7MDO5G3pvmX7vfA-3" value="npm : 11.3.0" style="rounded=0;whiteSpace=wrap;html=1;fillColor=#008a00;fontColor=#ffffff;strokeColor=#005700;" parent="1" vertex="1">
          <mxGeometry x="150" y="210" width="120" height="60" as="geometry" />
        </mxCell>
        <mxCell id="4uBkj7MDO5G3pvmX7vfA-4" value="vscode : 1.101.1" style="rounded=0;whiteSpace=wrap;html=1;fillColor=#008a00;fontColor=#ffffff;strokeColor=#005700;" parent="1" vertex="1">
          <mxGeometry x="150" y="290" width="120" height="60" as="geometry" />
        </mxCell>
        <mxCell id="4uBkj7MDO5G3pvmX7vfA-5" value="git 2.49.0" style="rounded=0;whiteSpace=wrap;html=1;fillColor=#008a00;fontColor=#ffffff;strokeColor=#005700;" parent="1" vertex="1">
          <mxGeometry x="150" y="370" width="120" height="60" as="geometry" />
        </mxCell>
        <mxCell id="4uBkj7MDO5G3pvmX7vfA-6" value="typescript : 5.8.3" style="rounded=0;whiteSpace=wrap;html=1;fillColor=#008a00;fontColor=#ffffff;strokeColor=#005700;" parent="1" vertex="1">
          <mxGeometry x="150" y="450" width="120" height="60" as="geometry" />
        </mxCell>
        <mxCell id="4uBkj7MDO5G3pvmX7vfA-7" value="angular 20.0" style="rounded=0;whiteSpace=wrap;html=1;fillColor=#008a00;fontColor=#ffffff;strokeColor=#005700;" parent="1" vertex="1">
          <mxGeometry x="150" y="530" width="120" height="60" as="geometry" />
        </mxCell>
        <mxCell id="4uBkj7MDO5G3pvmX7vfA-8" value="json-server 1.0.0" style="rounded=0;whiteSpace=wrap;html=1;fillColor=#008a00;fontColor=#ffffff;strokeColor=#005700;" parent="1" vertex="1">
          <mxGeometry x="150" y="610" width="120" height="60" as="geometry" />
        </mxCell>
        <UserObject label="https://github.com/QUAGLO30JUN2025GIT-HUB/QUAGLO30JUN2025GIT-REPO" link="https://github.com/QUAGLO30JUN2025GIT-HUB/QUAGLO30JUN2025GIT-REPO" id="4uBkj7MDO5G3pvmX7vfA-9">
          <mxCell style="text;whiteSpace=wrap;fillColor=#60a917;fontColor=#ffffff;strokeColor=#2D7600;" parent="1" vertex="1">
            <mxGeometry x="350" y="50" width="470" height="40" as="geometry" />
          </mxCell>
        </UserObject>
        <mxCell id="4uBkj7MDO5G3pvmX7vfA-10" value="QUAGLO30JUN2025GIT-REPO" style="text;whiteSpace=wrap;fillColor=#6a00ff;fontColor=#ffffff;strokeColor=#3700CC;" parent="1" vertex="1">
          <mxGeometry x="450" y="170" width="210" height="40" as="geometry" />
        </mxCell>
        <mxCell id="4uBkj7MDO5G3pvmX7vfA-12" value="QUAGLO30JUN2025GIT-HUB" style="text;whiteSpace=wrap;fillColor=#008a00;fontColor=#ffffff;strokeColor=#005700;" parent="1" vertex="1">
          <mxGeometry x="370" y="330" width="200" height="40" as="geometry" />
        </mxCell>
        <mxCell id="4uBkj7MDO5G3pvmX7vfA-13" value="LIVE-QUAGLO30JUN2025GIT-HUB" style="text;whiteSpace=wrap;fillColor=#60a917;fontColor=#ffffff;strokeColor=#2D7600;" parent="1" vertex="1">
          <mxGeometry x="370" y="380" width="230" height="40" as="geometry" />
        </mxCell>
        <mxCell id="mCzCQR54GSM49795i6yg-1" value="Muddy Pond" style="rounded=0;whiteSpace=wrap;html=1;fillColor=#a20025;fontColor=#ffffff;strokeColor=#6F0000;" vertex="1" parent="1">
          <mxGeometry x="460" y="590" width="120" height="60" as="geometry" />
        </mxCell>
        <mxCell id="mCzCQR54GSM49795i6yg-2" value="Lotus" style="rounded=0;whiteSpace=wrap;html=1;fillColor=#008a00;fontColor=#ffffff;strokeColor=#005700;" vertex="1" parent="1">
          <mxGeometry x="460" y="530" width="120" height="60" as="geometry" />
        </mxCell>
      </root>
    </mxGraphModel>
  </diagram>
  <diagram id="7kUPt9UT54nKWBkSDHKI" name="angular-gs">
    <mxGraphModel dx="772" dy="581" grid="1" gridSize="10" guides="1" tooltips="1" connect="1" arrows="1" fold="1" page="1" pageScale="1" pageWidth="850" pageHeight="1100" math="0" shadow="0">
      <root>
        <mxCell id="0" />
        <mxCell id="1" parent="0" />
        <mxCell id="w7q6yZgoRRmOjPv_khrF-9" value="" style="rounded=0;whiteSpace=wrap;html=1;fillColor=#0050ef;fontColor=#ffffff;strokeColor=#001DBC;" parent="1" vertex="1">
          <mxGeometry x="40" y="120" width="340" height="210" as="geometry" />
        </mxCell>
        <mxCell id="w7q6yZgoRRmOjPv_khrF-1" value="Angular" style="rounded=0;whiteSpace=wrap;html=1;fillColor=#008a00;fontColor=#ffffff;strokeColor=#005700;" parent="1" vertex="1">
          <mxGeometry x="340" y="40" width="120" height="60" as="geometry" />
        </mxCell>
        <mxCell id="w7q6yZgoRRmOjPv_khrF-2" value="Web" style="rounded=0;whiteSpace=wrap;html=1;fillColor=#a0522d;fontColor=#ffffff;strokeColor=#6D1F00;" parent="1" vertex="1">
          <mxGeometry x="70" y="370" width="120" height="60" as="geometry" />
        </mxCell>
        <mxCell id="w7q6yZgoRRmOjPv_khrF-3" value="Console App" style="rounded=0;whiteSpace=wrap;html=1;fillColor=#6a00ff;fontColor=#ffffff;strokeColor=#3700CC;" parent="1" vertex="1">
          <mxGeometry x="70" y="150" width="120" height="60" as="geometry" />
        </mxCell>
        <mxCell id="w7q6yZgoRRmOjPv_khrF-4" value="GUI" style="rounded=0;whiteSpace=wrap;html=1;fillColor=#6a00ff;fontColor=#ffffff;strokeColor=#3700CC;" parent="1" vertex="1">
          <mxGeometry x="70" y="250" width="120" height="60" as="geometry" />
        </mxCell>
        <mxCell id="w7q6yZgoRRmOjPv_khrF-5" value="Java" style="rounded=0;whiteSpace=wrap;html=1;fillColor=#008a00;fontColor=#ffffff;strokeColor=#005700;" parent="1" vertex="1">
          <mxGeometry x="220" y="150" width="120" height="60" as="geometry" />
        </mxCell>
        <mxCell id="w7q6yZgoRRmOjPv_khrF-7" value="Visual Basic" style="rounded=0;whiteSpace=wrap;html=1;fillColor=#008a00;fontColor=#ffffff;strokeColor=#005700;" parent="1" vertex="1">
          <mxGeometry x="220" y="250" width="120" height="60" as="geometry" />
        </mxCell>
        <mxCell id="w7q6yZgoRRmOjPv_khrF-8" value="HTML / CSS / JS" style="rounded=0;whiteSpace=wrap;html=1;fillColor=#e3c800;fontColor=#000000;strokeColor=#B09500;" parent="1" vertex="1">
          <mxGeometry x="220" y="370" width="120" height="60" as="geometry" />
        </mxCell>
        <mxCell id="w7q6yZgoRRmOjPv_khrF-10" value="jQuery" style="rounded=0;whiteSpace=wrap;html=1;fillColor=#a0522d;fontColor=#ffffff;strokeColor=#6D1F00;" parent="1" vertex="1">
          <mxGeometry x="370" y="430" width="120" height="60" as="geometry" />
        </mxCell>
        <mxCell id="w7q6yZgoRRmOjPv_khrF-11" value="Reduced the use of Raw DOM" style="rounded=0;whiteSpace=wrap;html=1;fillColor=#a0522d;fontColor=#ffffff;strokeColor=#6D1F00;" parent="1" vertex="1">
          <mxGeometry x="370" y="490" width="120" height="60" as="geometry" />
        </mxCell>
        <mxCell id="w7q6yZgoRRmOjPv_khrF-12" value="Bootstrap" style="rounded=0;whiteSpace=wrap;html=1;fillColor=#a0522d;fontColor=#ffffff;strokeColor=#6D1F00;" parent="1" vertex="1">
          <mxGeometry x="370" y="370" width="120" height="60" as="geometry" />
        </mxCell>
        <mxCell id="w7q6yZgoRRmOjPv_khrF-13" value="Angular JS / Framework" style="rounded=0;whiteSpace=wrap;html=1;fillColor=#6d8764;fontColor=#ffffff;strokeColor=#3A5431;" parent="1" vertex="1">
          <mxGeometry x="530" y="370" width="120" height="60" as="geometry" />
        </mxCell>
        <mxCell id="w7q6yZgoRRmOjPv_khrF-14" value="Problematic scopes&amp;nbsp;" style="rounded=0;whiteSpace=wrap;html=1;fillColor=#6d8764;fontColor=#ffffff;strokeColor=#3A5431;" parent="1" vertex="1">
          <mxGeometry x="530" y="430" width="120" height="60" as="geometry" />
        </mxCell>
        <mxCell id="w7q6yZgoRRmOjPv_khrF-15" value="complete rewrite" style="rounded=0;whiteSpace=wrap;html=1;fillColor=#008a00;fontColor=#ffffff;strokeColor=#005700;" parent="1" vertex="1">
          <mxGeometry x="690" y="430" width="120" height="60" as="geometry" />
        </mxCell>
        <mxCell id="w7q6yZgoRRmOjPv_khrF-16" value="Angular : Component Based Framework" style="rounded=0;whiteSpace=wrap;html=1;fillColor=#008a00;fontColor=#ffffff;strokeColor=#005700;" parent="1" vertex="1">
          <mxGeometry x="690" y="370" width="120" height="60" as="geometry" />
        </mxCell>
        <mxCell id="w7q6yZgoRRmOjPv_khrF-17" value="DOM, CSSOM" style="rounded=0;whiteSpace=wrap;html=1;fillColor=#008a00;fontColor=#ffffff;strokeColor=#005700;" parent="1" vertex="1">
          <mxGeometry x="220" y="430" width="120" height="60" as="geometry" />
        </mxCell>
        <mxCell id="w7q6yZgoRRmOjPv_khrF-18" value="Framework" style="rounded=0;whiteSpace=wrap;html=1;fillColor=#d80073;fontColor=#ffffff;strokeColor=#A50040;" parent="1" vertex="1">
          <mxGeometry x="360" y="660" width="120" height="60" as="geometry" />
        </mxCell>
        <mxCell id="w7q6yZgoRRmOjPv_khrF-19" value="MVC" style="rounded=0;whiteSpace=wrap;html=1;fillColor=#d80073;fontColor=#ffffff;strokeColor=#A50040;" parent="1" vertex="1">
          <mxGeometry x="305" y="720" width="120" height="60" as="geometry" />
        </mxCell>
        <mxCell id="w7q6yZgoRRmOjPv_khrF-20" value="ORM" style="rounded=0;whiteSpace=wrap;html=1;fillColor=#d80073;fontColor=#ffffff;strokeColor=#A50040;" parent="1" vertex="1">
          <mxGeometry x="425" y="720" width="120" height="60" as="geometry" />
        </mxCell>
        <mxCell id="w7q6yZgoRRmOjPv_khrF-21" value="Component" style="rounded=0;whiteSpace=wrap;html=1;fillColor=#008a00;fontColor=#ffffff;strokeColor=#005700;" parent="1" vertex="1">
          <mxGeometry x="630" y="655" width="120" height="60" as="geometry" />
        </mxCell>
        <mxCell id="w7q6yZgoRRmOjPv_khrF-22" value="A reusable piece of code" style="rounded=0;whiteSpace=wrap;html=1;fillColor=#0050ef;fontColor=#ffffff;strokeColor=#001DBC;" parent="1" vertex="1">
          <mxGeometry x="580" y="715" width="120" height="60" as="geometry" />
        </mxCell>
        <mxCell id="w7q6yZgoRRmOjPv_khrF-23" value="loosely coupled (different contexts" style="rounded=0;whiteSpace=wrap;html=1;fillColor=#0050ef;fontColor=#ffffff;strokeColor=#001DBC;" parent="1" vertex="1">
          <mxGeometry x="700" y="715" width="120" height="60" as="geometry" />
        </mxCell>
        <mxCell id="w7q6yZgoRRmOjPv_khrF-24" value="Mobile Phone" style="rounded=0;whiteSpace=wrap;html=1;fillColor=#a20025;fontColor=#ffffff;strokeColor=#6F0000;" parent="1" vertex="1">
          <mxGeometry x="50" y="910" width="120" height="60" as="geometry" />
        </mxCell>
        <mxCell id="w7q6yZgoRRmOjPv_khrF-25" value="SIM CARD" style="rounded=0;whiteSpace=wrap;html=1;fillColor=#a20025;fontColor=#ffffff;strokeColor=#6F0000;" parent="1" vertex="1">
          <mxGeometry x="100" y="970" width="120" height="60" as="geometry" />
        </mxCell>
        <mxCell id="w7q6yZgoRRmOjPv_khrF-26" value="SAMSUNG" style="rounded=0;whiteSpace=wrap;html=1;fillColor=#a20025;fontColor=#ffffff;strokeColor=#6F0000;" parent="1" vertex="1">
          <mxGeometry x="295" y="910" width="120" height="60" as="geometry" />
        </mxCell>
        <mxCell id="w7q6yZgoRRmOjPv_khrF-27" value="OPPO" style="rounded=0;whiteSpace=wrap;html=1;fillColor=#a20025;fontColor=#ffffff;strokeColor=#6F0000;" parent="1" vertex="1">
          <mxGeometry x="445" y="910" width="120" height="60" as="geometry" />
        </mxCell>
        <mxCell id="w7q6yZgoRRmOjPv_khrF-28" value="JIO SIM" style="rounded=0;whiteSpace=wrap;html=1;fillColor=#6a00ff;fontColor=#ffffff;strokeColor=#3700CC;" parent="1" vertex="1">
          <mxGeometry x="295" y="970" width="120" height="60" as="geometry" />
        </mxCell>
        <mxCell id="w7q6yZgoRRmOjPv_khrF-29" value="AIRTEL" style="rounded=0;whiteSpace=wrap;html=1;fillColor=#6a00ff;fontColor=#ffffff;strokeColor=#3700CC;" parent="1" vertex="1">
          <mxGeometry x="445" y="970" width="120" height="60" as="geometry" />
        </mxCell>
        <mxCell id="w7q6yZgoRRmOjPv_khrF-30" value="LIKE component" style="rounded=0;whiteSpace=wrap;html=1;fillColor=#6a00ff;fontColor=#ffffff;strokeColor=#3700CC;" parent="1" vertex="1">
          <mxGeometry x="760" y="970" width="120" height="60" as="geometry" />
        </mxCell>
        <mxCell id="w7q6yZgoRRmOjPv_khrF-31" value="Comment Component" style="rounded=0;whiteSpace=wrap;html=1;fillColor=#6a00ff;fontColor=#ffffff;strokeColor=#3700CC;" parent="1" vertex="1">
          <mxGeometry x="600" y="970" width="120" height="60" as="geometry" />
        </mxCell>
        <mxCell id="w7q6yZgoRRmOjPv_khrF-32" value="Video" style="rounded=0;whiteSpace=wrap;html=1;fillColor=#a20025;fontColor=#ffffff;strokeColor=#6F0000;" parent="1" vertex="1">
          <mxGeometry x="600" y="910" width="120" height="60" as="geometry" />
        </mxCell>
        <mxCell id="w7q6yZgoRRmOjPv_khrF-33" value="Blogs" style="rounded=0;whiteSpace=wrap;html=1;fillColor=#a20025;fontColor=#ffffff;strokeColor=#6F0000;" parent="1" vertex="1">
          <mxGeometry x="760" y="910" width="120" height="60" as="geometry" />
        </mxCell>
        <mxCell id="w7q6yZgoRRmOjPv_khrF-34" value="JSR" style="rounded=0;whiteSpace=wrap;html=1;fillColor=#6d8764;fontColor=#ffffff;strokeColor=#3A5431;" parent="1" vertex="1">
          <mxGeometry x="360" y="150" width="120" height="60" as="geometry" />
        </mxCell>
        <mxCell id="w7q6yZgoRRmOjPv_khrF-36" value="W3C" style="rounded=0;whiteSpace=wrap;html=1;fillColor=#008a00;fontColor=#ffffff;strokeColor=#005700;" parent="1" vertex="1">
          <mxGeometry x="70" y="440" width="120" height="60" as="geometry" />
        </mxCell>
        <mxCell id="w7q6yZgoRRmOjPv_khrF-37" value="IETF" style="rounded=0;whiteSpace=wrap;html=1;fillColor=#008a00;fontColor=#ffffff;strokeColor=#005700;" parent="1" vertex="1">
          <mxGeometry x="70" y="500" width="120" height="60" as="geometry" />
        </mxCell>
        <mxCell id="w7q6yZgoRRmOjPv_khrF-38" value="WHATWG" style="rounded=0;whiteSpace=wrap;html=1;fillColor=#008a00;fontColor=#ffffff;strokeColor=#005700;" parent="1" vertex="1">
          <mxGeometry x="70" y="560" width="120" height="60" as="geometry" />
        </mxCell>
        <mxCell id="w7q6yZgoRRmOjPv_khrF-39" value="CORE" style="rounded=0;whiteSpace=wrap;html=1;fillColor=#6d8764;fontColor=#ffffff;strokeColor=#3A5431;" parent="1" vertex="1">
          <mxGeometry x="50" y="1100" width="120" height="60" as="geometry" />
        </mxCell>
        <mxCell id="AmBzmvSW5Pj1r_VTWSlN-1" value="SERVICES, REPOSITORY, ENITIES&lt;div&gt;[REUSABLE]&lt;/div&gt;&lt;div&gt;Angular [UI COMPONENTS]&lt;/div&gt;" style="rounded=0;whiteSpace=wrap;html=1;fillColor=#6a00ff;fontColor=#ffffff;strokeColor=#3700CC;" parent="1" vertex="1">
          <mxGeometry x="205" y="1100" width="210" height="130" as="geometry" />
        </mxCell>
        <mxCell id="b2NQUI8ESwz-TgqrbkGk-1" value="JVM" style="rounded=0;whiteSpace=wrap;html=1;fillColor=#008a00;fontColor=#ffffff;strokeColor=#005700;" vertex="1" parent="1">
          <mxGeometry x="545" y="150" width="120" height="60" as="geometry" />
        </mxCell>
        <mxCell id="b2NQUI8ESwz-TgqrbkGk-2" value="Javascript Engine" style="rounded=0;whiteSpace=wrap;html=1;fillColor=#008a00;fontColor=#ffffff;strokeColor=#005700;" vertex="1" parent="1">
          <mxGeometry x="550" y="250" width="120" height="60" as="geometry" />
        </mxCell>
      </root>
    </mxGraphModel>
  </diagram>
  <diagram id="RxUTYHkaZWBI_f_vNAmJ" name="Angular In Action">
    <mxGraphModel dx="772" dy="581" grid="1" gridSize="10" guides="1" tooltips="1" connect="1" arrows="1" fold="1" page="1" pageScale="1" pageWidth="850" pageHeight="1100" math="0" shadow="0">
      <root>
        <mxCell id="0" />
        <mxCell id="1" parent="0" />
        <mxCell id="YtP0ZeLVNY6srhEIGRjG-1" value="User Story : As a dev, i would like to fetch data from a REST Api and display it in a component." style="rounded=0;whiteSpace=wrap;html=1;fillColor=#76608a;fontColor=#ffffff;strokeColor=#432D57;" parent="1" vertex="1">
          <mxGeometry x="120" y="70" width="300" height="60" as="geometry" />
        </mxCell>
        <mxCell id="YtP0ZeLVNY6srhEIGRjG-4" value="" style="edgeStyle=orthogonalEdgeStyle;rounded=0;orthogonalLoop=1;jettySize=auto;html=1;" parent="1" source="YtP0ZeLVNY6srhEIGRjG-2" target="YtP0ZeLVNY6srhEIGRjG-3" edge="1">
          <mxGeometry relative="1" as="geometry" />
        </mxCell>
        <mxCell id="YtP0ZeLVNY6srhEIGRjG-2" value="NODE" style="rounded=0;whiteSpace=wrap;html=1;fillColor=#60a917;fontColor=#ffffff;strokeColor=#2D7600;" parent="1" vertex="1">
          <mxGeometry x="130" y="300" width="120" height="60" as="geometry" />
        </mxCell>
        <mxCell id="YtP0ZeLVNY6srhEIGRjG-3" value="Runtime for Javascript appications" style="rounded=0;whiteSpace=wrap;html=1;" parent="1" vertex="1">
          <mxGeometry x="330" y="300" width="120" height="60" as="geometry" />
        </mxCell>
        <mxCell id="YtP0ZeLVNY6srhEIGRjG-7" value="" style="edgeStyle=orthogonalEdgeStyle;rounded=0;orthogonalLoop=1;jettySize=auto;html=1;" parent="1" source="YtP0ZeLVNY6srhEIGRjG-5" target="YtP0ZeLVNY6srhEIGRjG-6" edge="1">
          <mxGeometry relative="1" as="geometry" />
        </mxCell>
        <mxCell id="YtP0ZeLVNY6srhEIGRjG-5" value="npm" style="rounded=0;whiteSpace=wrap;html=1;fillColor=#60a917;fontColor=#ffffff;strokeColor=#2D7600;" parent="1" vertex="1">
          <mxGeometry x="130" y="390" width="120" height="60" as="geometry" />
        </mxCell>
        <mxCell id="YtP0ZeLVNY6srhEIGRjG-6" value="package manager" style="rounded=0;whiteSpace=wrap;html=1;" parent="1" vertex="1">
          <mxGeometry x="330" y="390" width="120" height="60" as="geometry" />
        </mxCell>
        <mxCell id="YtP0ZeLVNY6srhEIGRjG-8" value="Modules" style="rounded=0;whiteSpace=wrap;html=1;fillColor=#1ba1e2;fontColor=#ffffff;strokeColor=#006EAF;" parent="1" vertex="1">
          <mxGeometry x="220" y="520" width="120" height="60" as="geometry" />
        </mxCell>
        <mxCell id="YtP0ZeLVNY6srhEIGRjG-9" value="Stand-alone components." style="rounded=0;whiteSpace=wrap;html=1;fillColor=#1ba1e2;fontColor=#ffffff;strokeColor=#006EAF;" parent="1" vertex="1">
          <mxGeometry x="320" y="560" width="120" height="60" as="geometry" />
        </mxCell>
        <mxCell id="YtP0ZeLVNY6srhEIGRjG-10" value="Break" style="rounded=0;whiteSpace=wrap;html=1;fillColor=#d80073;fontColor=#ffffff;strokeColor=#A50040;" parent="1" vertex="1">
          <mxGeometry x="190" y="710" width="120" height="60" as="geometry" />
        </mxCell>
        <mxCell id="YtP0ZeLVNY6srhEIGRjG-11" value="Make" style="rounded=0;whiteSpace=wrap;html=1;fillColor=#60a917;fontColor=#ffffff;strokeColor=#2D7600;" parent="1" vertex="1">
          <mxGeometry x="340" y="710" width="110" height="60" as="geometry" />
        </mxCell>
        <mxCell id="YtP0ZeLVNY6srhEIGRjG-12" value="local&amp;nbsp;" style="rounded=0;whiteSpace=wrap;html=1;fillColor=#a20025;fontColor=#ffffff;strokeColor=#6F0000;" parent="1" vertex="1">
          <mxGeometry x="520" y="660" width="110" height="60" as="geometry" />
        </mxCell>
        <mxCell id="YtP0ZeLVNY6srhEIGRjG-13" value="global" style="rounded=0;whiteSpace=wrap;html=1;fillColor=#a20025;fontColor=#ffffff;strokeColor=#6F0000;" parent="1" vertex="1">
          <mxGeometry x="660" y="660" width="110" height="60" as="geometry" />
        </mxCell>
      </root>
    </mxGraphModel>
  </diagram>
  <diagram id="yhxWPbE-eUVyolXnmHh_" name="Angular">
    <mxGraphModel dx="1622" dy="581" grid="1" gridSize="10" guides="1" tooltips="1" connect="1" arrows="1" fold="1" page="1" pageScale="1" pageWidth="850" pageHeight="1100" math="0" shadow="0">
      <root>
        <mxCell id="0" />
        <mxCell id="1" parent="0" />
        <mxCell id="C-LcSxpV2KtuL8UDifMv-103" value="Angular" style="whiteSpace=wrap;html=1;aspect=fixed;fillColor=#76608a;strokeColor=#432D57;verticalAlign=bottom;fontColor=#ffffff;" parent="1" vertex="1">
          <mxGeometry x="10" y="775" width="325" height="325" as="geometry" />
        </mxCell>
        <mxCell id="C-LcSxpV2KtuL8UDifMv-102" value="&lt;div&gt;Components&lt;/div&gt;" style="whiteSpace=wrap;html=1;aspect=fixed;fillColor=#1ba1e2;strokeColor=#006EAF;verticalAlign=bottom;fontColor=#ffffff;" parent="1" vertex="1">
          <mxGeometry x="60" y="836.5" width="225" height="225" as="geometry" />
        </mxCell>
        <mxCell id="C-LcSxpV2KtuL8UDifMv-101" value="Typescript&lt;div&gt;&lt;br&gt;&lt;/div&gt;" style="whiteSpace=wrap;html=1;aspect=fixed;fillColor=#008a00;strokeColor=#005700;verticalAlign=bottom;fontColor=#ffffff;" parent="1" vertex="1">
          <mxGeometry x="62.5" y="870" width="130" height="130" as="geometry" />
        </mxCell>
        <mxCell id="C-LcSxpV2KtuL8UDifMv-49" value="" style="rounded=1;whiteSpace=wrap;html=1;" parent="1" vertex="1">
          <mxGeometry x="400" y="530" width="610" height="350" as="geometry" />
        </mxCell>
        <mxCell id="C-LcSxpV2KtuL8UDifMv-17" value="MULTIPAGE WEB APP&lt;div&gt;ANGULAR.DEV&lt;/div&gt;" style="text;html=1;align=center;verticalAlign=middle;whiteSpace=wrap;rounded=0;fillColor=#60a917;fontColor=#ffffff;strokeColor=#2D7600;" parent="1" vertex="1">
          <mxGeometry x="510" y="930" width="185" height="70" as="geometry" />
        </mxCell>
        <mxCell id="C-LcSxpV2KtuL8UDifMv-19" value="" style="group" parent="1" vertex="1" connectable="0">
          <mxGeometry x="-60" y="80" width="510" height="300" as="geometry" />
        </mxCell>
        <mxCell id="C-LcSxpV2KtuL8UDifMv-14" value="" style="rounded=1;whiteSpace=wrap;html=1;" parent="C-LcSxpV2KtuL8UDifMv-19" vertex="1">
          <mxGeometry width="510" height="300" as="geometry" />
        </mxCell>
        <mxCell id="C-LcSxpV2KtuL8UDifMv-5" value="" style="rounded=1;whiteSpace=wrap;html=1;fillColor=#d80073;fontColor=#ffffff;strokeColor=#A50040;" parent="C-LcSxpV2KtuL8UDifMv-19" vertex="1">
          <mxGeometry x="80.85365853658537" y="20.930232558139537" width="310.9756097560976" height="104.65116279069767" as="geometry" />
        </mxCell>
        <mxCell id="C-LcSxpV2KtuL8UDifMv-1" value="HTML" style="whiteSpace=wrap;html=1;aspect=fixed;" parent="C-LcSxpV2KtuL8UDifMv-19" vertex="1">
          <mxGeometry x="130.609756097561" y="41.86046511627907" width="49.75609756097561" height="49.75609756097561" as="geometry" />
        </mxCell>
        <mxCell id="C-LcSxpV2KtuL8UDifMv-2" value="CSS" style="whiteSpace=wrap;html=1;aspect=fixed;" parent="C-LcSxpV2KtuL8UDifMv-19" vertex="1">
          <mxGeometry x="211.46341463414635" y="41.86046511627907" width="49.75609756097561" height="49.75609756097561" as="geometry" />
        </mxCell>
        <mxCell id="C-LcSxpV2KtuL8UDifMv-3" value="JS" style="whiteSpace=wrap;html=1;aspect=fixed;" parent="C-LcSxpV2KtuL8UDifMv-19" vertex="1">
          <mxGeometry x="286.0975609756097" y="41.86046511627907" width="49.75609756097561" height="49.75609756097561" as="geometry" />
        </mxCell>
        <mxCell id="C-LcSxpV2KtuL8UDifMv-6" value="" style="rounded=1;whiteSpace=wrap;html=1;fillColor=#d80073;fontColor=#ffffff;strokeColor=#A50040;" parent="C-LcSxpV2KtuL8UDifMv-19" vertex="1">
          <mxGeometry x="80.85365853658537" y="153.48837209302326" width="310.9756097560976" height="104.65116279069767" as="geometry" />
        </mxCell>
        <mxCell id="C-LcSxpV2KtuL8UDifMv-7" value="HTML" style="whiteSpace=wrap;html=1;aspect=fixed;" parent="C-LcSxpV2KtuL8UDifMv-19" vertex="1">
          <mxGeometry x="130.609756097561" y="174.41860465116278" width="49.75609756097561" height="49.75609756097561" as="geometry" />
        </mxCell>
        <mxCell id="C-LcSxpV2KtuL8UDifMv-8" value="CSS" style="whiteSpace=wrap;html=1;aspect=fixed;" parent="C-LcSxpV2KtuL8UDifMv-19" vertex="1">
          <mxGeometry x="211.46341463414635" y="174.41860465116278" width="49.75609756097561" height="49.75609756097561" as="geometry" />
        </mxCell>
        <mxCell id="C-LcSxpV2KtuL8UDifMv-9" value="JS" style="whiteSpace=wrap;html=1;aspect=fixed;" parent="C-LcSxpV2KtuL8UDifMv-19" vertex="1">
          <mxGeometry x="286.0975609756097" y="174.41860465116278" width="49.75609756097561" height="49.75609756097561" as="geometry" />
        </mxCell>
        <mxCell id="C-LcSxpV2KtuL8UDifMv-10" value="COMPONENTS" style="text;html=1;align=center;verticalAlign=middle;whiteSpace=wrap;rounded=0;fillColor=#60a917;fontColor=#ffffff;strokeColor=#2D7600;" parent="C-LcSxpV2KtuL8UDifMv-19" vertex="1">
          <mxGeometry x="404.26829268292687" y="50.58139534883721" width="87.07317073170732" height="45.34883720930233" as="geometry" />
        </mxCell>
        <mxCell id="C-LcSxpV2KtuL8UDifMv-11" value="COMPONENTS" style="text;html=1;align=center;verticalAlign=middle;whiteSpace=wrap;rounded=0;fillColor=#60a917;fontColor=#ffffff;strokeColor=#2D7600;" parent="C-LcSxpV2KtuL8UDifMv-19" vertex="1">
          <mxGeometry x="404.26829268292687" y="188.37209302325581" width="87.07317073170732" height="45.34883720930233" as="geometry" />
        </mxCell>
        <mxCell id="C-LcSxpV2KtuL8UDifMv-15" value="LINKS" style="rounded=0;whiteSpace=wrap;html=1;fillColor=#1ba1e2;fontColor=#ffffff;strokeColor=#006EAF;" parent="C-LcSxpV2KtuL8UDifMv-19" vertex="1">
          <mxGeometry x="6.219512195121951" y="34.883720930232556" width="55.975609756097555" height="223.25581395348837" as="geometry" />
        </mxCell>
        <mxCell id="C-LcSxpV2KtuL8UDifMv-20" value="" style="group" parent="1" vertex="1" connectable="0">
          <mxGeometry x="600" y="90" width="450" height="280" as="geometry" />
        </mxCell>
        <mxCell id="C-LcSxpV2KtuL8UDifMv-21" value="" style="rounded=1;whiteSpace=wrap;html=1;" parent="C-LcSxpV2KtuL8UDifMv-20" vertex="1">
          <mxGeometry width="450" height="280" as="geometry" />
        </mxCell>
        <mxCell id="C-LcSxpV2KtuL8UDifMv-22" value="" style="rounded=1;whiteSpace=wrap;html=1;fillColor=#d80073;fontColor=#ffffff;strokeColor=#A50040;" parent="C-LcSxpV2KtuL8UDifMv-20" vertex="1">
          <mxGeometry x="71.34146341463415" y="19.53488372093023" width="274.390243902439" height="97.67441860465115" as="geometry" />
        </mxCell>
        <mxCell id="C-LcSxpV2KtuL8UDifMv-23" value="HTML" style="whiteSpace=wrap;html=1;aspect=fixed;" parent="C-LcSxpV2KtuL8UDifMv-20" vertex="1">
          <mxGeometry x="115.2439024390244" y="39.06976744186046" width="43.90243902439025" height="43.90243902439025" as="geometry" />
        </mxCell>
        <mxCell id="C-LcSxpV2KtuL8UDifMv-24" value="CSS" style="whiteSpace=wrap;html=1;aspect=fixed;" parent="C-LcSxpV2KtuL8UDifMv-20" vertex="1">
          <mxGeometry x="186.58536585365854" y="39.06976744186046" width="43.90243902439025" height="43.90243902439025" as="geometry" />
        </mxCell>
        <mxCell id="C-LcSxpV2KtuL8UDifMv-25" value="JS" style="whiteSpace=wrap;html=1;aspect=fixed;" parent="C-LcSxpV2KtuL8UDifMv-20" vertex="1">
          <mxGeometry x="252.4390243902439" y="39.06976744186046" width="43.90243902439025" height="43.90243902439025" as="geometry" />
        </mxCell>
        <mxCell id="C-LcSxpV2KtuL8UDifMv-26" value="" style="rounded=1;whiteSpace=wrap;html=1;fillColor=#d80073;fontColor=#ffffff;strokeColor=#A50040;" parent="C-LcSxpV2KtuL8UDifMv-20" vertex="1">
          <mxGeometry x="71.34146341463415" y="143.25581395348837" width="274.390243902439" height="97.67441860465115" as="geometry" />
        </mxCell>
        <mxCell id="C-LcSxpV2KtuL8UDifMv-27" value="HTML" style="whiteSpace=wrap;html=1;aspect=fixed;" parent="C-LcSxpV2KtuL8UDifMv-20" vertex="1">
          <mxGeometry x="115.2439024390244" y="162.7906976744186" width="43.90243902439025" height="43.90243902439025" as="geometry" />
        </mxCell>
        <mxCell id="C-LcSxpV2KtuL8UDifMv-28" value="CSS" style="whiteSpace=wrap;html=1;aspect=fixed;" parent="C-LcSxpV2KtuL8UDifMv-20" vertex="1">
          <mxGeometry x="186.58536585365854" y="162.7906976744186" width="43.90243902439025" height="43.90243902439025" as="geometry" />
        </mxCell>
        <mxCell id="C-LcSxpV2KtuL8UDifMv-29" value="JS" style="whiteSpace=wrap;html=1;aspect=fixed;" parent="C-LcSxpV2KtuL8UDifMv-20" vertex="1">
          <mxGeometry x="252.4390243902439" y="162.7906976744186" width="43.90243902439025" height="43.90243902439025" as="geometry" />
        </mxCell>
        <mxCell id="C-LcSxpV2KtuL8UDifMv-30" value="COMPONENTS" style="text;html=1;align=center;verticalAlign=middle;whiteSpace=wrap;rounded=0;fillColor=#60a917;fontColor=#ffffff;strokeColor=#2D7600;" parent="C-LcSxpV2KtuL8UDifMv-20" vertex="1">
          <mxGeometry x="356.70731707317077" y="47.20930232558139" width="76.82926829268293" height="42.325581395348834" as="geometry" />
        </mxCell>
        <mxCell id="C-LcSxpV2KtuL8UDifMv-31" value="COMPONENTS" style="text;html=1;align=center;verticalAlign=middle;whiteSpace=wrap;rounded=0;fillColor=#60a917;fontColor=#ffffff;strokeColor=#2D7600;" parent="C-LcSxpV2KtuL8UDifMv-20" vertex="1">
          <mxGeometry x="356.70731707317077" y="175.81395348837208" width="76.82926829268293" height="42.325581395348834" as="geometry" />
        </mxCell>
        <mxCell id="C-LcSxpV2KtuL8UDifMv-32" value="LINKS" style="rounded=0;whiteSpace=wrap;html=1;fillColor=#1ba1e2;fontColor=#ffffff;strokeColor=#006EAF;" parent="C-LcSxpV2KtuL8UDifMv-20" vertex="1">
          <mxGeometry x="5.487804878048781" y="32.558139534883715" width="49.390243902439025" height="208.3720930232558" as="geometry" />
        </mxCell>
        <mxCell id="C-LcSxpV2KtuL8UDifMv-33" value="" style="group" parent="1" vertex="1" connectable="0">
          <mxGeometry x="460" y="590" width="180" height="120" as="geometry" />
        </mxCell>
        <mxCell id="C-LcSxpV2KtuL8UDifMv-34" value="" style="rounded=1;whiteSpace=wrap;html=1;" parent="C-LcSxpV2KtuL8UDifMv-33" vertex="1">
          <mxGeometry width="180" height="120" as="geometry" />
        </mxCell>
        <mxCell id="C-LcSxpV2KtuL8UDifMv-35" value="" style="rounded=1;whiteSpace=wrap;html=1;fillColor=#d80073;fontColor=#ffffff;strokeColor=#A50040;" parent="C-LcSxpV2KtuL8UDifMv-33" vertex="1">
          <mxGeometry x="28.53658536585366" y="8.372093023255813" width="109.7560975609756" height="41.860465116279066" as="geometry" />
        </mxCell>
        <mxCell id="C-LcSxpV2KtuL8UDifMv-36" value="HTML" style="whiteSpace=wrap;html=1;aspect=fixed;" parent="C-LcSxpV2KtuL8UDifMv-33" vertex="1">
          <mxGeometry x="46.09756097560976" y="16.744186046511626" width="17.5609756097561" height="17.5609756097561" as="geometry" />
        </mxCell>
        <mxCell id="C-LcSxpV2KtuL8UDifMv-37" value="CSS" style="whiteSpace=wrap;html=1;aspect=fixed;" parent="C-LcSxpV2KtuL8UDifMv-33" vertex="1">
          <mxGeometry x="74.63414634146342" y="16.744186046511626" width="17.5609756097561" height="17.5609756097561" as="geometry" />
        </mxCell>
        <mxCell id="C-LcSxpV2KtuL8UDifMv-38" value="JS" style="whiteSpace=wrap;html=1;aspect=fixed;" parent="C-LcSxpV2KtuL8UDifMv-33" vertex="1">
          <mxGeometry x="100.97560975609757" y="16.744186046511626" width="17.5609756097561" height="17.5609756097561" as="geometry" />
        </mxCell>
        <mxCell id="C-LcSxpV2KtuL8UDifMv-39" value="" style="rounded=1;whiteSpace=wrap;html=1;fillColor=#d80073;fontColor=#ffffff;strokeColor=#A50040;" parent="C-LcSxpV2KtuL8UDifMv-33" vertex="1">
          <mxGeometry x="28.53658536585366" y="61.3953488372093" width="109.7560975609756" height="41.860465116279066" as="geometry" />
        </mxCell>
        <mxCell id="C-LcSxpV2KtuL8UDifMv-40" value="HTML" style="whiteSpace=wrap;html=1;aspect=fixed;" parent="C-LcSxpV2KtuL8UDifMv-33" vertex="1">
          <mxGeometry x="46.09756097560976" y="69.76744186046511" width="17.5609756097561" height="17.5609756097561" as="geometry" />
        </mxCell>
        <mxCell id="C-LcSxpV2KtuL8UDifMv-41" value="CSS" style="whiteSpace=wrap;html=1;aspect=fixed;" parent="C-LcSxpV2KtuL8UDifMv-33" vertex="1">
          <mxGeometry x="74.63414634146342" y="69.76744186046511" width="17.5609756097561" height="17.5609756097561" as="geometry" />
        </mxCell>
        <mxCell id="C-LcSxpV2KtuL8UDifMv-42" value="JS" style="whiteSpace=wrap;html=1;aspect=fixed;" parent="C-LcSxpV2KtuL8UDifMv-33" vertex="1">
          <mxGeometry x="100.97560975609757" y="69.76744186046511" width="17.5609756097561" height="17.5609756097561" as="geometry" />
        </mxCell>
        <mxCell id="C-LcSxpV2KtuL8UDifMv-43" value="COMPONENTS" style="text;html=1;align=center;verticalAlign=middle;whiteSpace=wrap;rounded=0;fillColor=#60a917;fontColor=#ffffff;strokeColor=#2D7600;" parent="C-LcSxpV2KtuL8UDifMv-33" vertex="1">
          <mxGeometry x="142.68292682926833" y="20.23255813953488" width="30.731707317073173" height="18.139534883720927" as="geometry" />
        </mxCell>
        <mxCell id="C-LcSxpV2KtuL8UDifMv-44" value="COMPONENTS" style="text;html=1;align=center;verticalAlign=middle;whiteSpace=wrap;rounded=0;fillColor=#60a917;fontColor=#ffffff;strokeColor=#2D7600;" parent="C-LcSxpV2KtuL8UDifMv-33" vertex="1">
          <mxGeometry x="142.68292682926833" y="75.34883720930232" width="30.731707317073173" height="18.139534883720927" as="geometry" />
        </mxCell>
        <mxCell id="C-LcSxpV2KtuL8UDifMv-45" value="LINKS" style="rounded=0;whiteSpace=wrap;html=1;fillColor=#1ba1e2;fontColor=#ffffff;strokeColor=#006EAF;" parent="C-LcSxpV2KtuL8UDifMv-33" vertex="1">
          <mxGeometry x="2.1951219512195124" y="13.95348837209302" width="19.75609756097561" height="89.30232558139534" as="geometry" />
        </mxCell>
        <mxCell id="C-LcSxpV2KtuL8UDifMv-50" value="" style="group" parent="1" vertex="1" connectable="0">
          <mxGeometry x="710" y="590" width="180" height="120" as="geometry" />
        </mxCell>
        <mxCell id="C-LcSxpV2KtuL8UDifMv-51" value="" style="rounded=1;whiteSpace=wrap;html=1;" parent="C-LcSxpV2KtuL8UDifMv-50" vertex="1">
          <mxGeometry width="180" height="120" as="geometry" />
        </mxCell>
        <mxCell id="C-LcSxpV2KtuL8UDifMv-52" value="" style="rounded=1;whiteSpace=wrap;html=1;fillColor=#d80073;fontColor=#ffffff;strokeColor=#A50040;" parent="C-LcSxpV2KtuL8UDifMv-50" vertex="1">
          <mxGeometry x="28.53658536585366" y="8.372093023255813" width="109.7560975609756" height="41.860465116279066" as="geometry" />
        </mxCell>
        <mxCell id="C-LcSxpV2KtuL8UDifMv-53" value="HTML" style="whiteSpace=wrap;html=1;aspect=fixed;" parent="C-LcSxpV2KtuL8UDifMv-50" vertex="1">
          <mxGeometry x="46.09756097560976" y="16.744186046511626" width="17.5609756097561" height="17.5609756097561" as="geometry" />
        </mxCell>
        <mxCell id="C-LcSxpV2KtuL8UDifMv-54" value="CSS" style="whiteSpace=wrap;html=1;aspect=fixed;" parent="C-LcSxpV2KtuL8UDifMv-50" vertex="1">
          <mxGeometry x="74.63414634146342" y="16.744186046511626" width="17.5609756097561" height="17.5609756097561" as="geometry" />
        </mxCell>
        <mxCell id="C-LcSxpV2KtuL8UDifMv-55" value="JS" style="whiteSpace=wrap;html=1;aspect=fixed;" parent="C-LcSxpV2KtuL8UDifMv-50" vertex="1">
          <mxGeometry x="100.97560975609757" y="16.744186046511626" width="17.5609756097561" height="17.5609756097561" as="geometry" />
        </mxCell>
        <mxCell id="C-LcSxpV2KtuL8UDifMv-56" value="" style="rounded=1;whiteSpace=wrap;html=1;fillColor=#d80073;fontColor=#ffffff;strokeColor=#A50040;" parent="C-LcSxpV2KtuL8UDifMv-50" vertex="1">
          <mxGeometry x="28.53658536585366" y="61.3953488372093" width="109.7560975609756" height="41.860465116279066" as="geometry" />
        </mxCell>
        <mxCell id="C-LcSxpV2KtuL8UDifMv-57" value="HTML" style="whiteSpace=wrap;html=1;aspect=fixed;" parent="C-LcSxpV2KtuL8UDifMv-50" vertex="1">
          <mxGeometry x="46.09756097560976" y="69.76744186046511" width="17.5609756097561" height="17.5609756097561" as="geometry" />
        </mxCell>
        <mxCell id="C-LcSxpV2KtuL8UDifMv-58" value="CSS" style="whiteSpace=wrap;html=1;aspect=fixed;" parent="C-LcSxpV2KtuL8UDifMv-50" vertex="1">
          <mxGeometry x="74.63414634146342" y="69.76744186046511" width="17.5609756097561" height="17.5609756097561" as="geometry" />
        </mxCell>
        <mxCell id="C-LcSxpV2KtuL8UDifMv-59" value="JS" style="whiteSpace=wrap;html=1;aspect=fixed;" parent="C-LcSxpV2KtuL8UDifMv-50" vertex="1">
          <mxGeometry x="100.97560975609757" y="69.76744186046511" width="17.5609756097561" height="17.5609756097561" as="geometry" />
        </mxCell>
        <mxCell id="C-LcSxpV2KtuL8UDifMv-60" value="COMPONENTS" style="text;html=1;align=center;verticalAlign=middle;whiteSpace=wrap;rounded=0;fillColor=#60a917;fontColor=#ffffff;strokeColor=#2D7600;" parent="C-LcSxpV2KtuL8UDifMv-50" vertex="1">
          <mxGeometry x="142.68292682926833" y="20.23255813953488" width="30.731707317073173" height="18.139534883720927" as="geometry" />
        </mxCell>
        <mxCell id="C-LcSxpV2KtuL8UDifMv-61" value="COMPONENTS" style="text;html=1;align=center;verticalAlign=middle;whiteSpace=wrap;rounded=0;fillColor=#60a917;fontColor=#ffffff;strokeColor=#2D7600;" parent="C-LcSxpV2KtuL8UDifMv-50" vertex="1">
          <mxGeometry x="142.68292682926833" y="75.34883720930232" width="30.731707317073173" height="18.139534883720927" as="geometry" />
        </mxCell>
        <mxCell id="C-LcSxpV2KtuL8UDifMv-62" value="LINKS" style="rounded=0;whiteSpace=wrap;html=1;fillColor=#1ba1e2;fontColor=#ffffff;strokeColor=#006EAF;" parent="C-LcSxpV2KtuL8UDifMv-50" vertex="1">
          <mxGeometry x="2.1951219512195124" y="13.95348837209302" width="19.75609756097561" height="89.30232558139534" as="geometry" />
        </mxCell>
        <mxCell id="C-LcSxpV2KtuL8UDifMv-63" value="" style="group" parent="1" vertex="1" connectable="0">
          <mxGeometry x="560" y="720" width="180" height="120" as="geometry" />
        </mxCell>
        <mxCell id="C-LcSxpV2KtuL8UDifMv-64" value="" style="rounded=1;whiteSpace=wrap;html=1;" parent="C-LcSxpV2KtuL8UDifMv-63" vertex="1">
          <mxGeometry width="180" height="120" as="geometry" />
        </mxCell>
        <mxCell id="C-LcSxpV2KtuL8UDifMv-65" value="" style="rounded=1;whiteSpace=wrap;html=1;fillColor=#d80073;fontColor=#ffffff;strokeColor=#A50040;" parent="C-LcSxpV2KtuL8UDifMv-63" vertex="1">
          <mxGeometry x="28.53658536585366" y="8.372093023255813" width="109.7560975609756" height="41.860465116279066" as="geometry" />
        </mxCell>
        <mxCell id="C-LcSxpV2KtuL8UDifMv-66" value="HTML" style="whiteSpace=wrap;html=1;aspect=fixed;" parent="C-LcSxpV2KtuL8UDifMv-63" vertex="1">
          <mxGeometry x="46.09756097560976" y="16.744186046511626" width="17.5609756097561" height="17.5609756097561" as="geometry" />
        </mxCell>
        <mxCell id="C-LcSxpV2KtuL8UDifMv-67" value="CSS" style="whiteSpace=wrap;html=1;aspect=fixed;" parent="C-LcSxpV2KtuL8UDifMv-63" vertex="1">
          <mxGeometry x="74.63414634146342" y="16.744186046511626" width="17.5609756097561" height="17.5609756097561" as="geometry" />
        </mxCell>
        <mxCell id="C-LcSxpV2KtuL8UDifMv-68" value="JS" style="whiteSpace=wrap;html=1;aspect=fixed;" parent="C-LcSxpV2KtuL8UDifMv-63" vertex="1">
          <mxGeometry x="100.97560975609757" y="16.744186046511626" width="17.5609756097561" height="17.5609756097561" as="geometry" />
        </mxCell>
        <mxCell id="C-LcSxpV2KtuL8UDifMv-69" value="" style="rounded=1;whiteSpace=wrap;html=1;fillColor=#d80073;fontColor=#ffffff;strokeColor=#A50040;" parent="C-LcSxpV2KtuL8UDifMv-63" vertex="1">
          <mxGeometry x="28.53658536585366" y="61.3953488372093" width="109.7560975609756" height="41.860465116279066" as="geometry" />
        </mxCell>
        <mxCell id="C-LcSxpV2KtuL8UDifMv-70" value="HTML" style="whiteSpace=wrap;html=1;aspect=fixed;" parent="C-LcSxpV2KtuL8UDifMv-63" vertex="1">
          <mxGeometry x="46.09756097560976" y="69.76744186046511" width="17.5609756097561" height="17.5609756097561" as="geometry" />
        </mxCell>
        <mxCell id="C-LcSxpV2KtuL8UDifMv-71" value="CSS" style="whiteSpace=wrap;html=1;aspect=fixed;" parent="C-LcSxpV2KtuL8UDifMv-63" vertex="1">
          <mxGeometry x="74.63414634146342" y="69.76744186046511" width="17.5609756097561" height="17.5609756097561" as="geometry" />
        </mxCell>
        <mxCell id="C-LcSxpV2KtuL8UDifMv-72" value="JS" style="whiteSpace=wrap;html=1;aspect=fixed;" parent="C-LcSxpV2KtuL8UDifMv-63" vertex="1">
          <mxGeometry x="100.97560975609757" y="69.76744186046511" width="17.5609756097561" height="17.5609756097561" as="geometry" />
        </mxCell>
        <mxCell id="C-LcSxpV2KtuL8UDifMv-73" value="COMPONENTS" style="text;html=1;align=center;verticalAlign=middle;whiteSpace=wrap;rounded=0;fillColor=#60a917;fontColor=#ffffff;strokeColor=#2D7600;" parent="C-LcSxpV2KtuL8UDifMv-63" vertex="1">
          <mxGeometry x="142.68292682926833" y="20.23255813953488" width="30.731707317073173" height="18.139534883720927" as="geometry" />
        </mxCell>
        <mxCell id="C-LcSxpV2KtuL8UDifMv-74" value="COMPONENTS" style="text;html=1;align=center;verticalAlign=middle;whiteSpace=wrap;rounded=0;fillColor=#60a917;fontColor=#ffffff;strokeColor=#2D7600;" parent="C-LcSxpV2KtuL8UDifMv-63" vertex="1">
          <mxGeometry x="142.68292682926833" y="75.34883720930232" width="30.731707317073173" height="18.139534883720927" as="geometry" />
        </mxCell>
        <mxCell id="C-LcSxpV2KtuL8UDifMv-75" value="LINKS" style="rounded=0;whiteSpace=wrap;html=1;fillColor=#1ba1e2;fontColor=#ffffff;strokeColor=#006EAF;" parent="C-LcSxpV2KtuL8UDifMv-63" vertex="1">
          <mxGeometry x="2.1951219512195124" y="13.95348837209302" width="19.75609756097561" height="89.30232558139534" as="geometry" />
        </mxCell>
        <mxCell id="C-LcSxpV2KtuL8UDifMv-80" value="APACHE TOMCAT" style="sketch=0;outlineConnect=0;fontColor=#ffffff;fillColor=#76608a;strokeColor=#432D57;dashed=0;verticalLabelPosition=bottom;verticalAlign=top;align=center;html=1;fontSize=12;fontStyle=0;aspect=fixed;pointerEvents=1;shape=mxgraph.aws4.servers;" parent="1" vertex="1">
          <mxGeometry x="787" y="910" width="78" height="78" as="geometry" />
        </mxCell>
        <mxCell id="C-LcSxpV2KtuL8UDifMv-81" value="" style="dashed=0;outlineConnect=0;html=1;align=center;labelPosition=center;verticalLabelPosition=bottom;verticalAlign=top;shape=mxgraph.weblogos.chrome" parent="1" vertex="1">
          <mxGeometry x="10" y="420" width="74.8" height="75.4" as="geometry" />
        </mxCell>
        <mxCell id="C-LcSxpV2KtuL8UDifMv-82" value="JavaScript Runtime" style="text;html=1;align=center;verticalAlign=middle;whiteSpace=wrap;rounded=0;fillColor=#60a917;fontColor=#ffffff;strokeColor=#2D7600;" parent="1" vertex="1">
          <mxGeometry x="120" y="425.4" width="185" height="70" as="geometry" />
        </mxCell>
        <mxCell id="C-LcSxpV2KtuL8UDifMv-83" value="" style="shape=flexArrow;endArrow=classic;html=1;rounded=0;entryX=0.004;entryY=0.405;entryDx=0;entryDy=0;entryPerimeter=0;" parent="1" target="C-LcSxpV2KtuL8UDifMv-49" edge="1">
          <mxGeometry width="50" height="50" relative="1" as="geometry">
            <mxPoint x="50" y="510" as="sourcePoint" />
            <mxPoint x="540" y="420" as="targetPoint" />
          </mxGeometry>
        </mxCell>
        <mxCell id="C-LcSxpV2KtuL8UDifMv-84" value="HTTPRequest" style="text;html=1;align=center;verticalAlign=middle;whiteSpace=wrap;rounded=0;fillColor=#60a917;fontColor=#ffffff;strokeColor=#2D7600;" parent="1" vertex="1">
          <mxGeometry x="60" y="630" width="185" height="70" as="geometry" />
        </mxCell>
        <mxCell id="C-LcSxpV2KtuL8UDifMv-85" value="" style="shape=flexArrow;endArrow=classic;html=1;rounded=0;entryX=0.75;entryY=1;entryDx=0;entryDy=0;" parent="1" source="C-LcSxpV2KtuL8UDifMv-49" target="C-LcSxpV2KtuL8UDifMv-14" edge="1">
          <mxGeometry width="50" height="50" relative="1" as="geometry">
            <mxPoint x="350" y="640" as="sourcePoint" />
            <mxPoint x="702" y="802" as="targetPoint" />
          </mxGeometry>
        </mxCell>
        <mxCell id="C-LcSxpV2KtuL8UDifMv-86" value="HttpResponse" style="text;html=1;align=center;verticalAlign=middle;whiteSpace=wrap;rounded=0;fillColor=#60a917;fontColor=#ffffff;strokeColor=#2D7600;" parent="1" vertex="1">
          <mxGeometry x="425" y="420" width="185" height="70" as="geometry" />
        </mxCell>
        <mxCell id="C-LcSxpV2KtuL8UDifMv-100" value="Javascript" style="whiteSpace=wrap;html=1;aspect=fixed;" parent="1" vertex="1">
          <mxGeometry x="84.8" y="877.5" width="80" height="80" as="geometry" />
        </mxCell>
        <mxCell id="C-LcSxpV2KtuL8UDifMv-105" value="HTML" style="whiteSpace=wrap;html=1;aspect=fixed;" parent="1" vertex="1">
          <mxGeometry x="210" y="870" width="60" height="60" as="geometry" />
        </mxCell>
        <mxCell id="C-LcSxpV2KtuL8UDifMv-106" value="CSS" style="whiteSpace=wrap;html=1;aspect=fixed;" parent="1" vertex="1">
          <mxGeometry x="210" y="940" width="60" height="60" as="geometry" />
        </mxCell>
      </root>
    </mxGraphModel>
  </diagram>
  <diagram id="uOGqzBX3_bCCC23A_2vg" name="JS &gt; Angular">
    <mxGraphModel dx="734" dy="1681" grid="1" gridSize="10" guides="1" tooltips="1" connect="1" arrows="1" fold="1" page="1" pageScale="1" pageWidth="850" pageHeight="1100" math="0" shadow="0">
      <root>
        <mxCell id="0" />
        <mxCell id="1" parent="0" />
        <mxCell id="rmqtLOiFDf1wfwx7WdaD-1" value="HTML / CSS / JS" style="rounded=0;whiteSpace=wrap;html=1;fillColor=#e3c800;fontColor=#000000;strokeColor=#B09500;" vertex="1" parent="1">
          <mxGeometry x="400" y="110" width="120" height="60" as="geometry" />
        </mxCell>
        <mxCell id="rmqtLOiFDf1wfwx7WdaD-2" value="DOM, CSSOM" style="rounded=0;whiteSpace=wrap;html=1;fillColor=#008a00;fontColor=#ffffff;strokeColor=#005700;" vertex="1" parent="1">
          <mxGeometry x="400" y="170" width="120" height="60" as="geometry" />
        </mxCell>
        <mxCell id="rmqtLOiFDf1wfwx7WdaD-4" style="edgeStyle=orthogonalEdgeStyle;rounded=0;orthogonalLoop=1;jettySize=auto;html=1;entryX=0;entryY=0.5;entryDx=0;entryDy=0;" edge="1" parent="1" source="rmqtLOiFDf1wfwx7WdaD-3" target="rmqtLOiFDf1wfwx7WdaD-1">
          <mxGeometry relative="1" as="geometry" />
        </mxCell>
        <mxCell id="rmqtLOiFDf1wfwx7WdaD-3" value="Angular App" style="ellipse;whiteSpace=wrap;html=1;aspect=fixed;fillColor=#6a00ff;fontColor=#ffffff;strokeColor=#3700CC;" vertex="1" parent="1">
          <mxGeometry x="180" y="130" width="80" height="80" as="geometry" />
        </mxCell>
        <mxCell id="NuFCyFmaQl7LdAhN-tf5-1" value="Javascript Engine" style="rounded=0;whiteSpace=wrap;html=1;fillColor=#008a00;fontColor=#ffffff;strokeColor=#005700;" vertex="1" parent="1">
          <mxGeometry x="460" y="30" width="120" height="60" as="geometry" />
        </mxCell>
        <mxCell id="NuFCyFmaQl7LdAhN-tf5-2" value="" style="dashed=0;outlineConnect=0;html=1;align=center;labelPosition=center;verticalLabelPosition=bottom;verticalAlign=top;shape=mxgraph.weblogos.chrome" vertex="1" parent="1">
          <mxGeometry x="610" y="22.30000000000001" width="74.8" height="75.4" as="geometry" />
        </mxCell>
        <mxCell id="NuFCyFmaQl7LdAhN-tf5-3" value="Browser API" style="rounded=0;whiteSpace=wrap;html=1;fillColor=#008a00;fontColor=#ffffff;strokeColor=#005700;" vertex="1" parent="1">
          <mxGeometry x="587.4" y="-50" width="120" height="60" as="geometry" />
        </mxCell>
        <mxCell id="NuFCyFmaQl7LdAhN-tf5-4" value="Javascript" style="rounded=0;whiteSpace=wrap;html=1;fillColor=#008a00;fontColor=#ffffff;strokeColor=#005700;fontStyle=1" vertex="1" parent="1">
          <mxGeometry x="227.4" y="-190" width="452.6" height="40" as="geometry" />
        </mxCell>
        <mxCell id="NuFCyFmaQl7LdAhN-tf5-5" value="Browser API" style="rounded=0;whiteSpace=wrap;html=1;fillColor=#6a00ff;fontColor=#ffffff;strokeColor=#3700CC;" vertex="1" parent="1">
          <mxGeometry x="227.4" y="-150" width="452.6" height="40" as="geometry" />
        </mxCell>
        <mxCell id="837XnwJ-fNDpsIfQOOCI-1" value="" style="group" vertex="1" connectable="0" parent="1">
          <mxGeometry x="190" y="290" width="450" height="280" as="geometry" />
        </mxCell>
        <mxCell id="837XnwJ-fNDpsIfQOOCI-2" value="" style="rounded=1;whiteSpace=wrap;html=1;" vertex="1" parent="837XnwJ-fNDpsIfQOOCI-1">
          <mxGeometry width="450" height="280" as="geometry" />
        </mxCell>
        <mxCell id="837XnwJ-fNDpsIfQOOCI-3" value="" style="rounded=1;whiteSpace=wrap;html=1;fillColor=#d80073;fontColor=#ffffff;strokeColor=#A50040;" vertex="1" parent="837XnwJ-fNDpsIfQOOCI-1">
          <mxGeometry x="71.34146341463415" y="19.53488372093023" width="274.390243902439" height="97.67441860465115" as="geometry" />
        </mxCell>
        <mxCell id="837XnwJ-fNDpsIfQOOCI-4" value="HTML" style="whiteSpace=wrap;html=1;aspect=fixed;" vertex="1" parent="837XnwJ-fNDpsIfQOOCI-1">
          <mxGeometry x="115.2439024390244" y="39.06976744186046" width="43.90243902439025" height="43.90243902439025" as="geometry" />
        </mxCell>
        <mxCell id="837XnwJ-fNDpsIfQOOCI-5" value="CSS" style="whiteSpace=wrap;html=1;aspect=fixed;" vertex="1" parent="837XnwJ-fNDpsIfQOOCI-1">
          <mxGeometry x="186.58536585365854" y="39.06976744186046" width="43.90243902439025" height="43.90243902439025" as="geometry" />
        </mxCell>
        <mxCell id="837XnwJ-fNDpsIfQOOCI-6" value="JS" style="whiteSpace=wrap;html=1;aspect=fixed;" vertex="1" parent="837XnwJ-fNDpsIfQOOCI-1">
          <mxGeometry x="252.4390243902439" y="39.06976744186046" width="43.90243902439025" height="43.90243902439025" as="geometry" />
        </mxCell>
        <mxCell id="837XnwJ-fNDpsIfQOOCI-7" value="" style="rounded=1;whiteSpace=wrap;html=1;fillColor=#d80073;fontColor=#ffffff;strokeColor=#A50040;" vertex="1" parent="837XnwJ-fNDpsIfQOOCI-1">
          <mxGeometry x="71.34146341463415" y="143.25581395348837" width="274.390243902439" height="97.67441860465115" as="geometry" />
        </mxCell>
        <mxCell id="837XnwJ-fNDpsIfQOOCI-8" value="HTML" style="whiteSpace=wrap;html=1;aspect=fixed;" vertex="1" parent="837XnwJ-fNDpsIfQOOCI-1">
          <mxGeometry x="115.2439024390244" y="162.7906976744186" width="43.90243902439025" height="43.90243902439025" as="geometry" />
        </mxCell>
        <mxCell id="837XnwJ-fNDpsIfQOOCI-9" value="CSS" style="whiteSpace=wrap;html=1;aspect=fixed;" vertex="1" parent="837XnwJ-fNDpsIfQOOCI-1">
          <mxGeometry x="186.58536585365854" y="162.7906976744186" width="43.90243902439025" height="43.90243902439025" as="geometry" />
        </mxCell>
        <mxCell id="837XnwJ-fNDpsIfQOOCI-10" value="JS" style="whiteSpace=wrap;html=1;aspect=fixed;" vertex="1" parent="837XnwJ-fNDpsIfQOOCI-1">
          <mxGeometry x="252.4390243902439" y="162.7906976744186" width="43.90243902439025" height="43.90243902439025" as="geometry" />
        </mxCell>
        <mxCell id="837XnwJ-fNDpsIfQOOCI-11" value="COMPONENTS" style="text;html=1;align=center;verticalAlign=middle;whiteSpace=wrap;rounded=0;fillColor=#60a917;fontColor=#ffffff;strokeColor=#2D7600;" vertex="1" parent="837XnwJ-fNDpsIfQOOCI-1">
          <mxGeometry x="356.70731707317077" y="47.20930232558139" width="76.82926829268293" height="42.325581395348834" as="geometry" />
        </mxCell>
        <mxCell id="837XnwJ-fNDpsIfQOOCI-12" value="COMPONENTS" style="text;html=1;align=center;verticalAlign=middle;whiteSpace=wrap;rounded=0;fillColor=#60a917;fontColor=#ffffff;strokeColor=#2D7600;" vertex="1" parent="837XnwJ-fNDpsIfQOOCI-1">
          <mxGeometry x="356.70731707317077" y="175.81395348837208" width="76.82926829268293" height="42.325581395348834" as="geometry" />
        </mxCell>
        <mxCell id="837XnwJ-fNDpsIfQOOCI-13" value="LINKS" style="rounded=0;whiteSpace=wrap;html=1;fillColor=#1ba1e2;fontColor=#ffffff;strokeColor=#006EAF;" vertex="1" parent="837XnwJ-fNDpsIfQOOCI-1">
          <mxGeometry x="5.487804878048781" y="32.558139534883715" width="49.390243902439025" height="208.3720930232558" as="geometry" />
        </mxCell>
        <mxCell id="IVrhJ19hPGWwIHuM7TgB-1" value="TS" style="whiteSpace=wrap;html=1;aspect=fixed;" vertex="1" parent="837XnwJ-fNDpsIfQOOCI-1">
          <mxGeometry x="296.34" y="70" width="40" height="40" as="geometry" />
        </mxCell>
        <mxCell id="b2IZpjJRsd_TrNwebytZ-1" value="JavaScript" style="rounded=0;whiteSpace=wrap;html=1;fillColor=#008a00;fontColor=#ffffff;strokeColor=#005700;" vertex="1" parent="1">
          <mxGeometry x="720" y="220" width="120" height="60" as="geometry" />
        </mxCell>
        <mxCell id="b2IZpjJRsd_TrNwebytZ-2" value="Typescript" style="rounded=0;whiteSpace=wrap;html=1;fillColor=#008a00;fontColor=#ffffff;strokeColor=#005700;" vertex="1" parent="1">
          <mxGeometry x="890" y="220" width="120" height="60" as="geometry" />
        </mxCell>
        <mxCell id="b2IZpjJRsd_TrNwebytZ-3" value="Dynmacally typed&lt;div&gt;var data = 1;&lt;/div&gt;&lt;div&gt;var data = &quot;Ram&quot;&lt;/div&gt;" style="rounded=0;whiteSpace=wrap;html=1;fillColor=#a20025;fontColor=#ffffff;strokeColor=#6F0000;" vertex="1" parent="1">
          <mxGeometry x="720" y="380" width="120" height="60" as="geometry" />
        </mxCell>
        <mxCell id="b2IZpjJRsd_TrNwebytZ-4" value="Script" style="rounded=0;whiteSpace=wrap;html=1;" vertex="1" parent="1">
          <mxGeometry x="720" y="300" width="120" height="60" as="geometry" />
        </mxCell>
        <mxCell id="b2IZpjJRsd_TrNwebytZ-5" value="Programming Language" style="rounded=0;whiteSpace=wrap;html=1;fillColor=#008a00;fontColor=#ffffff;strokeColor=#005700;" vertex="1" parent="1">
          <mxGeometry x="720" y="460" width="120" height="60" as="geometry" />
        </mxCell>
        <mxCell id="b2IZpjJRsd_TrNwebytZ-6" value="Programming Language experience to Javascript" style="rounded=0;whiteSpace=wrap;html=1;fillColor=#008a00;fontColor=#ffffff;strokeColor=#005700;" vertex="1" parent="1">
          <mxGeometry x="890" y="300" width="120" height="60" as="geometry" />
        </mxCell>
        <mxCell id="b2IZpjJRsd_TrNwebytZ-7" value="Statically typed&lt;div&gt;&amp;nbsp;data : &amp;lt;type&amp;gt; = 1;&lt;/div&gt;&lt;div&gt;&amp;nbsp;data : &amp;lt;type&amp;gt; = &quot;Ram&quot;&lt;/div&gt;" style="rounded=0;whiteSpace=wrap;html=1;fillColor=#008a00;fontColor=#ffffff;strokeColor=#005700;" vertex="1" parent="1">
          <mxGeometry x="890" y="380" width="120" height="60" as="geometry" />
        </mxCell>
        <mxCell id="b2IZpjJRsd_TrNwebytZ-8" value="Compile-time type checking" style="rounded=0;whiteSpace=wrap;html=1;fillColor=#008a00;fontColor=#ffffff;strokeColor=#005700;" vertex="1" parent="1">
          <mxGeometry x="890" y="530" width="120" height="60" as="geometry" />
        </mxCell>
        <mxCell id="b2IZpjJRsd_TrNwebytZ-9" value="No compile-time type checking" style="rounded=0;whiteSpace=wrap;html=1;fillColor=#008a00;fontColor=#ffffff;strokeColor=#005700;" vertex="1" parent="1">
          <mxGeometry x="720" y="540" width="120" height="60" as="geometry" />
        </mxCell>
        <mxCell id="b2IZpjJRsd_TrNwebytZ-10" value="Scenario : Use Case : Problem : Solution" style="rounded=0;whiteSpace=wrap;html=1;fillColor=#6a00ff;fontColor=#ffffff;strokeColor=#3700CC;" vertex="1" parent="1">
          <mxGeometry x="630" y="740" width="120" height="60" as="geometry" />
        </mxCell>
        <mxCell id="b2IZpjJRsd_TrNwebytZ-11" value="List payment = new ArrayList();" style="rounded=0;whiteSpace=wrap;html=1;fillColor=#a20025;fontColor=#ffffff;strokeColor=#6F0000;" vertex="1" parent="1">
          <mxGeometry x="189.99999999999997" y="840" width="120" height="60" as="geometry" />
        </mxCell>
        <mxCell id="b2IZpjJRsd_TrNwebytZ-12" value="payment.add(new Payment());" style="rounded=0;whiteSpace=wrap;html=1;fillColor=#a20025;fontColor=#ffffff;strokeColor=#6F0000;" vertex="1" parent="1">
          <mxGeometry x="207.6" y="900" width="120" height="60" as="geometry" />
        </mxCell>
        <mxCell id="b2IZpjJRsd_TrNwebytZ-13" value="payment.add(new FileNotFoundException())" style="rounded=0;whiteSpace=wrap;html=1;fillColor=#a20025;fontColor=#ffffff;strokeColor=#6F0000;" vertex="1" parent="1">
          <mxGeometry x="207.6" y="960" width="170" height="90" as="geometry" />
        </mxCell>
        <mxCell id="b2IZpjJRsd_TrNwebytZ-14" value="Compilation Errors" style="rounded=0;whiteSpace=wrap;html=1;fillColor=#a20025;fontColor=#ffffff;strokeColor=#6F0000;" vertex="1" parent="1">
          <mxGeometry x="420" y="900" width="170" height="90" as="geometry" />
        </mxCell>
        <mxCell id="b2IZpjJRsd_TrNwebytZ-15" value="RawTypes" style="rounded=0;whiteSpace=wrap;html=1;fillColor=#a20025;fontColor=#ffffff;strokeColor=#6F0000;" vertex="1" parent="1">
          <mxGeometry x="420" y="840" width="120" height="60" as="geometry" />
        </mxCell>
        <mxCell id="b2IZpjJRsd_TrNwebytZ-16" value="List payment = new ArrayList&amp;lt;Payment)();" style="rounded=0;whiteSpace=wrap;html=1;fillColor=#008a00;fontColor=#ffffff;strokeColor=#005700;" vertex="1" parent="1">
          <mxGeometry x="180" y="1120" width="120" height="60" as="geometry" />
        </mxCell>
        <mxCell id="b2IZpjJRsd_TrNwebytZ-17" value="payment.add(new Payment());" style="rounded=0;whiteSpace=wrap;html=1;fillColor=#008a00;fontColor=#ffffff;strokeColor=#005700;" vertex="1" parent="1">
          <mxGeometry x="197.60000000000002" y="1180" width="120" height="60" as="geometry" />
        </mxCell>
        <mxCell id="b2IZpjJRsd_TrNwebytZ-18" value="payment.add(new FileNotFoundException())&lt;div&gt;(Fails to compile on Dev1&#39;s machine)&lt;/div&gt;" style="rounded=0;whiteSpace=wrap;html=1;fillColor=#008a00;fontColor=#ffffff;strokeColor=#005700;" vertex="1" parent="1">
          <mxGeometry x="197.60000000000002" y="1240" width="170" height="90" as="geometry" />
        </mxCell>
        <mxCell id="b2IZpjJRsd_TrNwebytZ-19" value="No more errors due to incompatible types" style="rounded=0;whiteSpace=wrap;html=1;fillColor=#008a00;fontColor=#ffffff;strokeColor=#005700;" vertex="1" parent="1">
          <mxGeometry x="410" y="1180" width="170" height="90" as="geometry" />
        </mxCell>
        <mxCell id="b2IZpjJRsd_TrNwebytZ-20" value="GenericType" style="rounded=0;whiteSpace=wrap;html=1;fillColor=#008a00;fontColor=#ffffff;strokeColor=#005700;" vertex="1" parent="1">
          <mxGeometry x="410" y="1120" width="120" height="60" as="geometry" />
        </mxCell>
        <mxCell id="b2IZpjJRsd_TrNwebytZ-21" value="No more errors due to incompatible types" style="rounded=0;whiteSpace=wrap;html=1;fillColor=#008a00;fontColor=#ffffff;strokeColor=#005700;" vertex="1" parent="1">
          <mxGeometry x="890" y="720" width="170" height="90" as="geometry" />
        </mxCell>
        <mxCell id="b2IZpjJRsd_TrNwebytZ-22" value="Errors are found at runtime" style="rounded=0;whiteSpace=wrap;html=1;fillColor=#008a00;fontColor=#ffffff;strokeColor=#005700;" vertex="1" parent="1">
          <mxGeometry x="720" y="625" width="120" height="60" as="geometry" />
        </mxCell>
        <mxCell id="b2IZpjJRsd_TrNwebytZ-23" value="Many errors caught during compile-time" style="rounded=0;whiteSpace=wrap;html=1;fillColor=#008a00;fontColor=#ffffff;strokeColor=#005700;" vertex="1" parent="1">
          <mxGeometry x="890" y="620" width="120" height="60" as="geometry" />
        </mxCell>
        <mxCell id="b2IZpjJRsd_TrNwebytZ-24" value="Transpiled" style="rounded=0;whiteSpace=wrap;html=1;fillColor=#1ba1e2;fontColor=#ffffff;strokeColor=#006EAF;" vertex="1" parent="1">
          <mxGeometry x="800" y="120" width="120" height="60" as="geometry" />
        </mxCell>
        <mxCell id="b2IZpjJRsd_TrNwebytZ-25" value="Angular does DOM Manipulation Effectively, helping the developers focus on Businees Logic, rather than low-level tasks." style="rounded=0;whiteSpace=wrap;html=1;fillColor=#008a00;fontColor=#ffffff;strokeColor=#005700;" vertex="1" parent="1">
          <mxGeometry x="640" y="1070" width="170" height="90" as="geometry" />
        </mxCell>
        <mxCell id="b2IZpjJRsd_TrNwebytZ-26" value="JDBC : Low-level API" style="rounded=0;whiteSpace=wrap;html=1;fillColor=#008a00;fontColor=#ffffff;strokeColor=#005700;" vertex="1" parent="1">
          <mxGeometry x="640" y="1280" width="170" height="60" as="geometry" />
        </mxCell>
        <mxCell id="b2IZpjJRsd_TrNwebytZ-27" value="Hibernate Framework (Query)&lt;div&gt;[JDBC under the hood]&lt;/div&gt;" style="rounded=0;whiteSpace=wrap;html=1;fillColor=#008a00;fontColor=#ffffff;strokeColor=#005700;" vertex="1" parent="1">
          <mxGeometry x="720" y="1380" width="170" height="60" as="geometry" />
        </mxCell>
        <mxCell id="b2IZpjJRsd_TrNwebytZ-28" style="edgeStyle=orthogonalEdgeStyle;rounded=0;orthogonalLoop=1;jettySize=auto;html=1;entryX=0.592;entryY=1.017;entryDx=0;entryDy=0;entryPerimeter=0;" edge="1" parent="1" source="b2IZpjJRsd_TrNwebytZ-27" target="b2IZpjJRsd_TrNwebytZ-26">
          <mxGeometry relative="1" as="geometry" />
        </mxCell>
        <mxCell id="b2IZpjJRsd_TrNwebytZ-29" value="DOM: Low-level API" style="rounded=0;whiteSpace=wrap;html=1;fillColor=#008a00;fontColor=#ffffff;strokeColor=#005700;" vertex="1" parent="1">
          <mxGeometry x="707.4" y="1170" width="170" height="60" as="geometry" />
        </mxCell>
      </root>
    </mxGraphModel>
  </diagram>
  <diagram id="LGuAnJWfTofHerDXhoG8" name="DOM Manipulation">
    <mxGraphModel dx="1584" dy="581" grid="1" gridSize="10" guides="1" tooltips="1" connect="1" arrows="1" fold="1" page="1" pageScale="1" pageWidth="850" pageHeight="1100" math="0" shadow="0">
      <root>
        <mxCell id="0" />
        <mxCell id="1" parent="0" />
        <mxCell id="PhUljegK5cIGNLwMUvOK-2" value="" style="shape=image;verticalLabelPosition=bottom;labelBackgroundColor=default;verticalAlign=top;aspect=fixed;imageAspect=0;image=https://upload.wikimedia.org/wikipedia/commons/thumb/5/5a/DOM-model.svg/800px-DOM-model.svg.png;" vertex="1" parent="1">
          <mxGeometry x="120" y="379.00000000000006" width="330" height="341.55" as="geometry" />
        </mxCell>
        <mxCell id="KyIVnv6nWdcjUuwpr22v-3" style="edgeStyle=orthogonalEdgeStyle;rounded=0;orthogonalLoop=1;jettySize=auto;html=1;entryX=0;entryY=0.5;entryDx=0;entryDy=0;" edge="1" parent="1" source="KyIVnv6nWdcjUuwpr22v-1" target="KyIVnv6nWdcjUuwpr22v-2">
          <mxGeometry relative="1" as="geometry" />
        </mxCell>
        <mxCell id="KyIVnv6nWdcjUuwpr22v-4" style="edgeStyle=orthogonalEdgeStyle;rounded=0;orthogonalLoop=1;jettySize=auto;html=1;" edge="1" parent="1" source="KyIVnv6nWdcjUuwpr22v-1">
          <mxGeometry relative="1" as="geometry">
            <mxPoint x="257.4" y="730" as="targetPoint" />
          </mxGeometry>
        </mxCell>
        <mxCell id="KyIVnv6nWdcjUuwpr22v-1" value="" style="dashed=0;outlineConnect=0;html=1;align=center;labelPosition=center;verticalLabelPosition=bottom;verticalAlign=top;shape=mxgraph.weblogos.chrome" vertex="1" parent="1">
          <mxGeometry x="220" y="820" width="74.8" height="75.4" as="geometry" />
        </mxCell>
        <mxCell id="KyIVnv6nWdcjUuwpr22v-2" value="&lt;table border=&quot;1&quot; width=&quot;100%&quot; height=&quot;100%&quot; cellpadding=&quot;4&quot; style=&quot;width:100%;height:100%;border-collapse:collapse;&quot;&gt;&lt;tr&gt;&lt;th align=&quot;center&quot;&gt;&lt;b&gt;Title&lt;/b&gt;&lt;/th&gt;&lt;/tr&gt;&lt;tr&gt;&lt;td align=&quot;center&quot;&gt;Section 1.1&#xa;Section 1.2&#xa;Section 1.3&lt;/td&gt;&lt;/tr&gt;&lt;tr&gt;&lt;td align=&quot;center&quot;&gt;Section 2.1&#xa;Section 2.2&#xa;Section 2.3&lt;/td&gt;&lt;/tr&gt;&lt;/table&gt;" style="text;html=1;whiteSpace=wrap;strokeColor=none;fillColor=none;overflow=fill;" vertex="1" parent="1">
          <mxGeometry x="470" y="768" width="180" height="180" as="geometry" />
        </mxCell>
        <mxCell id="KyIVnv6nWdcjUuwpr22v-5" value="RENDERING" style="rounded=1;whiteSpace=wrap;html=1;fillColor=#008a00;fontColor=#ffffff;strokeColor=#005700;" vertex="1" parent="1">
          <mxGeometry x="305" y="910" width="120" height="60" as="geometry" />
        </mxCell>
        <mxCell id="KyIVnv6nWdcjUuwpr22v-6" value="PAINT THE BRWOSER SCREEN" style="rounded=1;whiteSpace=wrap;html=1;" vertex="1" parent="1">
          <mxGeometry x="430" y="980" width="120" height="60" as="geometry" />
        </mxCell>
        <mxCell id="KyIVnv6nWdcjUuwpr22v-8" style="edgeStyle=orthogonalEdgeStyle;rounded=0;orthogonalLoop=1;jettySize=auto;html=1;" edge="1" parent="1" source="KyIVnv6nWdcjUuwpr22v-7" target="PhUljegK5cIGNLwMUvOK-2">
          <mxGeometry relative="1" as="geometry">
            <Array as="points">
              <mxPoint x="70" y="925" />
              <mxPoint x="70" y="550" />
            </Array>
          </mxGeometry>
        </mxCell>
        <mxCell id="KyIVnv6nWdcjUuwpr22v-7" value="ANGULAR IS MANIPULATING THE DOM" style="rounded=1;whiteSpace=wrap;html=1;fillColor=#008a00;fontColor=#ffffff;strokeColor=#005700;" vertex="1" parent="1">
          <mxGeometry x="-110" y="895.4" width="120" height="60" as="geometry" />
        </mxCell>
        <mxCell id="KyIVnv6nWdcjUuwpr22v-9" value="TRADITIONAL DOM MANIPULATION" style="rounded=1;whiteSpace=wrap;html=1;fillColor=#008a00;fontColor=#ffffff;strokeColor=#005700;" vertex="1" parent="1">
          <mxGeometry x="490" y="430" width="120" height="60" as="geometry" />
        </mxCell>
      </root>
    </mxGraphModel>
  </diagram>
</mxfile>
